<?xml version="1.0" encoding="UTF-8"?>
<svg version="1.1" xmlns="http://www.w3.org/2000/svg" width="2068" height="697">
<path d="M0 0 C1.21384872 -0.00426498 2.42769745 -0.00852997 3.67832947 -0.01292419 C4.99690445 -0.01247101 6.31547943 -0.01201782 7.67401123 -0.0115509 C9.08722522 -0.01454559 10.5004384 -0.01794883 11.91365051 -0.02172852 C15.74236134 -0.03054239 19.57104979 -0.03290556 23.39976978 -0.0335443 C25.79560642 -0.03425642 28.19143741 -0.03639383 30.58727264 -0.03904152 C38.95652119 -0.04828712 47.32575384 -0.05237749 55.69500732 -0.05158997 C63.47820869 -0.05098976 71.26134062 -0.06153237 79.04452443 -0.07733363 C85.74114024 -0.09044113 92.43773345 -0.0957725 99.13436198 -0.09513456 C103.12749471 -0.09488046 107.12056573 -0.09768238 111.11368561 -0.10831261 C114.87298813 -0.11804748 118.63217064 -0.11803613 122.39147758 -0.11079597 C124.41484539 -0.10926436 126.43821333 -0.11755956 128.46156311 -0.12623596 C145.5387816 -0.06776844 145.5387816 -0.06776844 151.46600342 3.88371277 C153.39812264 7.04536241 153.54616035 8.46689672 152.84100342 12.13371277 C145.08971436 26.12996751 130.0727589 38.04547047 118.85499573 49.2467041 C117.14332527 50.95952839 115.43187259 52.67257035 113.72061747 54.3858096 C110.01656053 58.09315837 106.31097288 61.79896978 102.60398865 65.50339127 C97.09155599 71.01202346 91.5820071 76.52353332 86.0729986 82.03558963 C76.23190463 91.88193584 66.38796746 101.7254356 56.54280033 111.56770897 C47.92944038 120.17854975 39.31701493 128.79032382 30.70551109 137.40302086 C29.84746544 138.26118109 29.84746544 138.26118109 28.97208554 139.13667788 C26.64985946 141.45921531 24.32763691 143.78175627 22.00542016 146.10430302 C0.24198751 167.87079158 -21.52435494 189.63436827 -43.2920089 211.39663519 C-62.62373929 230.72361776 -81.95287946 250.05318727 -101.27984619 269.38493347 C-123.00929079 291.11973375 -144.74035136 312.85291624 -166.47401887 334.58349389 C-168.79099961 336.90015392 -171.10797641 339.21681788 -173.42495155 341.53348351 C-173.99542496 342.10387784 -174.56589838 342.67427217 -175.15365886 343.26195118 C-183.76288173 351.87003727 -192.37087142 360.47935521 -200.97826195 369.08927345 C-210.76350698 378.87737781 -220.5505374 388.66369304 -230.3399243 398.44765506 C-235.81657498 403.92137079 -241.29185156 409.39645248 -246.76514665 414.87352359 C-250.85248145 418.96336692 -254.94242794 423.05059017 -259.03339628 427.13679864 C-260.68750213 428.7897872 -262.34076535 430.44361947 -263.99310019 432.09837834 C-266.23968258 434.34800365 -268.48932624 436.59452359 -270.73974895 438.84030628 C-271.37978754 439.48268603 -272.01982612 440.12506578 -272.67925981 440.78691158 C-276.45814145 444.55024839 -280.35431866 448.12325093 -284.39786543 451.60109342 C-288.33498583 455.02736119 -291.97907455 458.76785588 -295.6675415 462.45695496 C-297.08567942 463.87291224 -298.51196323 465.28069566 -299.93829346 466.68840027 C-305.37245008 472.11122786 -310.38283874 477.66547084 -315.09088135 483.73234558 C-318.64781927 487.86244137 -321.94676526 490.96675191 -327.47149658 491.38371277 C-331.4364611 491.11490161 -333.09529945 490.60169102 -336.15899658 488.13371277 C-338.91332057 484.33245671 -339.53395345 481.69436612 -339.53321838 477.03250122 C-339.5402327 475.80608917 -339.54724701 474.57967712 -339.55447388 473.31610107 C-339.54704658 471.96485736 -339.53931545 470.61361529 -339.53131104 469.26237488 C-339.53374034 467.83284745 -339.537461 466.40332171 -339.54237366 464.97380066 C-339.55177336 461.09522468 -339.54236184 457.21690152 -339.52904153 453.33834529 C-339.51770322 449.26936617 -339.52183678 445.20039908 -339.52378845 441.13140869 C-339.52467138 434.29107046 -339.5135972 427.45083131 -339.49517822 420.61051941 C-339.47406982 412.72682404 -339.47048814 404.84327441 -339.47674018 396.95955652 C-339.48245949 389.35578566 -339.47675426 381.75206562 -339.46556664 374.14830208 C-339.46094845 370.92334099 -339.46003474 367.69841127 -339.46215248 364.4734478 C-339.46405293 360.66242231 -339.45579827 356.85154251 -339.44009209 353.04055023 C-339.43589125 351.65073055 -339.43496992 350.26089596 -339.43778229 348.87107277 C-339.47159817 329.15028689 -335.45870253 314.57171406 -321.45011395 300.50261259 C-320.29884297 299.36853987 -319.14724203 298.23480205 -317.99534607 297.10136414 C-316.75750596 295.8575941 -315.52119952 294.61229618 -314.28628236 293.36562395 C-310.91646837 289.97257049 -307.52542114 286.6014864 -304.13023078 283.23385143 C-300.46169109 279.58743159 -296.81350007 275.92074632 -293.16264343 272.25663757 C-286.01924092 265.09371977 -278.85733922 257.94958185 -271.68883606 250.81179374 C-263.33588159 242.49332041 -255.0011369 234.15669973 -246.66695074 225.81942993 C-231.79457287 210.94286611 -216.90520223 196.08342647 -202.00640869 181.23332214 C-187.55847879 166.83258827 -173.1235977 152.41893685 -158.70269775 137.99113464 C-140.47507369 119.75484301 -122.23604305 101.53003809 -103.98749521 83.31468448 C-98.17552526 77.51261522 -92.36764084 71.70647543 -86.56111717 65.8989563 C-79.48430729 58.8213882 -72.40007171 51.75134907 -65.30648061 44.69059891 C-61.68915916 41.08972679 -58.075025 37.48580802 -54.46946716 33.87315369 C-51.16615482 30.56355398 -47.85369353 27.26340323 -44.53381459 23.97042423 C-43.33726219 22.78039953 -42.14401585 21.58703894 -40.95452442 20.38995641 C-29.17009739 8.53787673 -17.34614198 0.02766512 0 0 Z " fill="#4B6978" transform="translate(506.15899658203125,98.86628723144531)"/>
<path d="M0 0 C1.75113571 -0.00271734 3.50227027 -0.00628241 5.25340271 -0.01062012 C9.96167536 -0.01965401 14.66985931 -0.01623853 19.3781333 -0.00986195 C24.32664554 -0.00475974 29.27515075 -0.00950459 34.22366333 -0.01263428 C42.52330882 -0.01625966 50.82291855 -0.01151032 59.12255859 -0.00195312 C68.70153337 0.00895023 78.28042311 0.00538646 87.85939586 -0.00560594 C96.11115808 -0.0146939 104.36289478 -0.01595735 112.61466038 -0.0107286 C117.53150077 -0.00761997 122.44830122 -0.00716947 127.36513901 -0.01380157 C131.98309105 -0.01959718 136.6009337 -0.01553774 141.21887398 -0.00401306 C142.90828966 -0.00137923 144.59771462 -0.00210963 146.28712654 -0.00653839 C166.49535595 -0.05461363 166.49535595 -0.05461363 172.57080078 3.94628906 C174.73868435 7.43375394 174.74047845 9.19853108 174.00830078 13.25878906 C169.32333756 20.74828174 162.65163291 26.89555499 156.42651367 33.08349609 C155.37401407 34.1370711 154.32194816 35.19107952 153.27027893 36.2454834 C150.43595276 39.08461946 147.59547715 41.91752632 144.75365376 44.74915552 C141.76722205 47.72674148 138.78612621 50.70966129 135.80430603 53.69186401 C130.79864189 58.69659434 125.78913711 63.69745355 120.77709961 68.69580078 C114.99852442 74.45864926 109.22519373 80.22670891 103.45484358 85.99779236 C97.2873982 92.16591542 91.11614401 98.33021698 84.94377589 104.49341345 C83.17577721 106.25929017 81.40848157 108.02586787 79.64134407 109.79260635 C76.85540011 112.57753896 74.06689524 115.35988315 71.27646446 118.14031982 C70.25821751 119.1556691 69.24078866 120.17183965 68.22428131 121.18893051 C63.23499749 126.17999301 58.20765952 131.0421251 52.8533411 135.63987732 C49.72984632 138.38055585 46.80957246 141.31831876 43.87719727 144.26049805 C43.21427673 144.92166626 42.5513562 145.58283447 41.86834717 146.26403809 C39.70286087 148.42516471 37.5410044 150.58987944 35.37939453 152.75488281 C33.86074658 154.27285603 32.3419503 155.79068088 30.82301331 157.30836487 C27.65015703 160.47975214 24.47910278 163.65292729 21.30932617 166.82739258 C17.2623794 170.88003612 13.21095918 174.92817306 9.15817165 178.97497463 C6.0241089 182.10541023 2.89244861 185.23824054 -0.23850822 188.3717823 C-1.73079134 189.86472872 -3.22380719 191.35694313 -4.71759224 192.84838676 C-6.81083211 194.93906458 -8.90080185 197.03296011 -10.98999023 199.12768555 C-11.5974559 199.73312698 -12.20492157 200.33856842 -12.83079529 200.96235657 C-16.5540427 204.70374815 -20.05605788 208.57408384 -23.46246243 212.60690403 C-25.50806887 214.81657273 -27.01609562 215.73805843 -29.99169922 216.25878906 C-34.4814996 216.17861406 -36.41114158 215.75100097 -39.86669922 212.82128906 C-43.07018417 208.95826309 -43.11705871 207.04051017 -43.11868286 202.07000732 C-43.12024285 201.42792997 -43.12180284 200.78585261 -43.12341011 200.12431836 C-43.12741425 197.96176215 -43.12423228 195.79927555 -43.12109375 193.63671875 C-43.12244842 192.08906005 -43.12422873 190.54140166 -43.12640381 188.9937439 C-43.13098089 184.77296637 -43.12918466 180.55221318 -43.12602472 176.3314352 C-43.12348993 171.89049146 -43.12584295 167.44954978 -43.12741089 163.00860596 C-43.12923461 155.51973093 -43.12682651 148.03086572 -43.12207031 140.54199219 C-43.11668285 131.96176877 -43.11834875 123.38156933 -43.12389672 114.80134654 C-43.12848926 107.39537632 -43.12904723 99.98941317 -43.12645805 92.58344197 C-43.12492134 88.17939061 -43.12462679 83.77535033 -43.12799454 79.37129974 C-43.13873293 62.72146589 -43.0938947 46.07297979 -42.67089844 29.42773438 C-42.64893465 28.21922192 -42.62697086 27.01070946 -42.60434151 25.76557541 C-42.35867878 17.82808815 -41.67814944 10.76609908 -36.74169922 4.32128906 C-27.75093934 -2.10433134 -10.6052841 -0.02802194 0 0 Z " fill="#4B6978" transform="translate(209.99169921875,98.7412109375)"/>
<path d="M0 0 C5.52207451 1.14116426 9.36892191 5.4427704 12.9375 9.53515625 C20.11952845 17.59508451 27.78790398 25.1683808 35.42895508 32.78979492 C37.92710843 35.28255745 40.41983073 37.78066225 42.91210938 40.27929688 C44.52181466 41.88834178 46.1318299 43.49707668 47.7421875 45.10546875 C48.47571945 45.84102493 49.2092514 46.57658112 49.9650116 47.33442688 C50.66967056 48.03593369 51.37432953 48.73744049 52.1003418 49.46020508 C52.70669968 50.06576736 53.31305756 50.67132965 53.93778992 51.29524231 C55.7964901 53.05099544 57.68478649 54.70353873 59.62960815 56.3600769 C66.04480843 61.94860459 71.96650622 68.05761629 77.97436523 74.07543945 C79.35300903 75.45272647 80.73186509 76.82980105 82.11091614 78.2066803 C85.83586621 81.92709148 89.55767047 85.65063454 93.27876163 89.37490487 C97.17653338 93.27521552 101.07675241 97.17307774 104.97657776 101.07133484 C111.51735294 107.61029409 118.05602394 114.15135187 124.59350586 120.69360352 C132.1580152 128.26356803 139.72613871 135.82990493 147.29612297 143.39439422 C153.79829772 149.89203769 160.29853018 156.39161941 166.79712921 162.89283913 C170.67766125 166.7749321 174.55887042 170.65634159 178.44183159 174.53600502 C182.08598169 178.17727574 185.72769459 181.82096622 189.36750603 185.46657372 C190.70625397 186.80664831 192.04586176 188.14586453 193.38637161 189.48417664 C195.20959717 191.30468736 197.02974274 193.12822141 198.84910583 194.95259094 C199.3854688 195.48672318 199.92183176 196.02085542 200.47444814 196.57117349 C203.62867498 199.74236932 205.09480062 201.26253571 205.60546875 205.7734375 C205.23046875 209.4609375 205.23046875 209.4609375 202.98046875 212.3359375 C198.44588162 215.83993665 194.29931517 215.60683682 188.72422791 215.59465027 C187.96494714 215.59691583 187.20566637 215.59918138 186.4233771 215.60151559 C183.87720667 215.60784936 181.33108955 215.60702661 178.78491211 215.60620117 C176.95982799 215.60919317 175.13474451 215.6125958 173.30966187 215.61637878 C168.34857118 215.62522182 163.38749775 215.62755711 158.42639995 215.62819457 C155.32468089 215.62890525 152.22296621 215.63103997 149.12124825 215.63369179 C138.29347582 215.64294832 127.46571571 215.64702655 116.63793945 215.64624023 C106.55766374 215.64564032 96.47744169 215.65617438 86.39717954 215.6719839 C77.73542497 215.68508268 69.07368787 215.6904231 60.41192347 215.68978482 C55.24222177 215.6895304 50.0725677 215.69235078 44.9028759 215.70296288 C40.03473736 215.71268245 35.16669156 215.71269666 30.29854965 215.70544624 C28.51806438 215.70440498 26.73757323 215.7067359 24.95709801 215.7128067 C-0.92159205 215.79528126 -0.92159205 215.79528126 -7.76953125 209.4609375 C-13.46884043 199.43801446 -11.92403168 186.63320697 -11.93066406 175.44433594 C-11.93529836 173.61863099 -11.94032383 171.79292701 -11.94570923 169.96722412 C-11.95876724 165.02956265 -11.96526399 160.09191472 -11.96971989 155.1542387 C-11.97265834 152.06811785 -11.97676435 148.98200065 -11.98122406 145.89588165 C-11.99487502 136.23539872 -12.00455618 126.57492419 -12.00842595 116.91443229 C-12.01291574 105.76911936 -12.03051627 94.62392851 -12.05942655 83.47865272 C-12.08102138 74.85425812 -12.09112888 66.22989797 -12.09246707 57.60547662 C-12.09351569 52.45725056 -12.09943709 47.30913965 -12.11728668 42.16094208 C-12.13373166 37.32473461 -12.13594033 32.48872938 -12.12714767 27.65250397 C-12.12637567 25.87755289 -12.13074152 24.10259107 -12.14060593 22.32766724 C-12.15327761 19.90584487 -12.14747531 17.48474425 -12.13702393 15.06292725 C-12.14508033 14.35991415 -12.15313673 13.65690105 -12.16143727 12.93258452 C-12.11772479 8.60556678 -11.42793061 5.89447259 -8.76953125 2.4609375 C-5.59946806 0.34756204 -3.73525488 0.16402317 0 0 Z " fill="#4B6978" transform="translate(453.76953125,384.5390625)"/>
<path d="M0 0 C14.85 0 29.7 0 45 0 C46.80189939 5.40569816 48.51383113 10.64146066 49.98608398 16.11645508 C50.25043495 17.09505745 50.25043495 17.09505745 50.52012634 18.09342957 C51.09793655 20.23480197 51.67200139 22.37715942 52.24609375 24.51953125 C52.66121115 26.06042667 53.07658704 27.60125247 53.49220276 29.14201355 C54.58970133 33.21301441 55.68413297 37.28483313 56.777771 41.35687256 C64.45228826 69.92277626 72.21724305 98.46322452 80 127 C80.33 85.09 80.66 43.18 81 0 C91.56 0 102.12 0 113 0 C113 74.91 113 149.82 113 227 C100.79 227 88.58 227 76 227 C72.62497999 216.87493996 72.62497999 216.87493996 71.23266602 211.72680664 C70.91634216 210.56225449 70.60001831 209.39770233 70.27410889 208.19786072 C69.76910858 206.32294701 69.76910858 206.32294701 69.25390625 204.41015625 C68.88679971 203.05471345 68.51946314 201.69933293 68.1519165 200.3440094 C67.15912284 196.6804976 66.16956248 193.01611957 65.18060684 189.35157013 C64.14075714 185.50063576 63.09791039 181.65051311 62.05541992 177.80029297 C60.06140622 170.43389468 58.0701946 163.06674196 56.08007336 155.69929123 C54.43779082 149.61974702 52.79442971 143.54049521 51.15039062 137.46142578 C50.91139919 136.57770452 50.67240776 135.69398325 50.42617416 134.78348255 C49.50228432 131.36724679 48.5783754 127.95101619 47.65445709 124.53478813 C43.09919426 107.69087801 38.55016447 90.84528973 34 74 C33.67 124.49 33.34 174.98 33 227 C22.11 227 11.22 227 0 227 C0 152.09 0 77.18 0 0 Z " fill="#4B6978" transform="translate(1611,393)"/>
<path d="M0 0 C81.71929825 0 81.71929825 0 94.2890625 11.00390625 C104.28404643 21.46682014 107.31501941 34.23733214 107.30078125 48.30078125 C107.30506638 49.25840866 107.3093515 50.21603607 107.31376648 51.2026825 C107.31947619 53.21706354 107.32003502 55.23146519 107.31567383 57.24584961 C107.31251933 60.29382284 107.33599698 63.34081859 107.36132812 66.38867188 C107.41141444 81.4951069 106.8422417 96.87492565 95.6796875 108.39453125 C93.50269667 110.33702307 91.27984941 112.18068017 89 114 C88.34 114.66 87.68 115.32 87 116 C88.2684375 116.7734375 88.2684375 116.7734375 89.5625 117.5625 C98.78616153 123.82762858 103.65296014 131.78188468 106.25 142.625 C107.84775644 151.48571705 108.15556654 160.16103153 108.2109375 169.14453125 C108.2390033 171.70378247 108.26766774 174.26302718 108.296875 176.82226562 C108.33807394 180.81782728 108.37500428 184.81314892 108.40136719 188.80883789 C108.42914552 192.69181716 108.47500717 196.57426167 108.5234375 200.45703125 C108.52669037 201.63554153 108.52994324 202.81405182 108.53329468 204.02827454 C108.55814438 205.72514656 108.55814438 205.72514656 108.58349609 207.45629883 C108.59158295 208.43286942 108.5996698 209.40944 108.60800171 210.41560364 C109.18597247 215.70051519 110.71057833 220.84231331 112 226 C99.46 226 86.92 226 74 226 C70.85286938 216.55860814 70.84960235 207.65014429 70.7890625 197.75 C70.76100695 195.17707683 70.73234259 192.60416024 70.703125 190.03125 C70.66184208 186.00911376 70.62385116 181.98710945 70.59863281 177.96484375 C70.57095667 174.0596445 70.525105 170.15498832 70.4765625 166.25 C70.47330963 165.05600586 70.47005676 163.86201172 70.46670532 162.63183594 C70.32460191 152.92630229 69.13764874 144.96770472 62 138 C54.78271479 134.84516395 54.78271479 134.84516395 37 134 C37 164.36 37 194.72 37 226 C24.79 226 12.58 226 0 226 C0 151.42 0 76.84 0 0 Z M37 33 C37 55.44 37 77.88 37 101 C55.50928802 102.49071198 55.50928802 102.49071198 65 97 C70.2388988 90.7960409 71.31107219 83.89421663 71.30078125 75.9765625 C71.30720894 74.85814468 71.30720894 74.85814468 71.31376648 73.71713257 C71.31947598 72.14899708 71.32003516 70.58083513 71.31567383 69.01269531 C71.31251755 66.63820301 71.33600119 64.26496345 71.36132812 61.890625 C71.39935172 52.79144685 71.18105415 44.9836515 66.125 37.0625 C58.3111653 29.47848396 47.33469629 33 37 33 Z " fill="#4B6978" transform="translate(1320,111)"/>
<path d="M0 0 C10.48364656 9.79326008 15.5470344 24.4587055 16.37395668 38.47233009 C16.45280285 41.98534688 16.46924232 45.49318541 16.4621582 49.00708008 C16.46651671 50.34557883 16.47170361 51.68407509 16.47764587 53.02256775 C16.49092601 56.62607585 16.49162684 60.22947837 16.48908257 63.83300614 C16.48800517 66.85689134 16.49291583 69.88075584 16.497688 72.90463656 C16.5087456 80.04752443 16.50924204 87.19035969 16.50317383 94.33325195 C16.49713937 101.6660705 16.50944021 108.99869692 16.5307439 116.33148271 C16.54844305 122.65969642 16.55434817 128.98784944 16.55110615 135.31608695 C16.54930606 139.08126447 16.55180032 142.84630496 16.56582069 146.61145973 C16.57853053 150.15667997 16.57633295 153.70160399 16.56340981 157.24682045 C16.55997183 159.14293845 16.57112472 161.03906607 16.58297729 162.93515015 C16.47956107 180.10409967 12.59757621 195.50959073 0.53125 208.03125 C-12.06700585 219.67869409 -28.00819787 220.97736709 -44.359375 220.59375 C-57.6073359 220.05264881 -69.26488797 215.39217503 -79.03515625 206.28125 C-91.26876119 192.73017992 -93.12436879 174.43286903 -93.0871582 156.97338867 C-93.09226913 155.7097197 -93.09738007 154.44605072 -93.10264587 153.14408875 C-93.11588489 149.71824346 -93.11663158 146.29250949 -93.11408257 142.86664367 C-93.11300236 139.98699531 -93.11792283 137.10736852 -93.122688 134.22772485 C-93.13373131 127.42320268 -93.13425015 120.61873574 -93.12817383 113.81420898 C-93.12214022 106.83924809 -93.13444137 99.86448924 -93.1557439 92.88956279 C-93.17346832 86.86021286 -93.17934427 80.8309266 -93.17610615 74.80155164 C-93.17431009 71.21854314 -93.1767586 67.63567875 -93.19082069 64.05269432 C-93.35515378 18.27105102 -93.35515378 18.27105102 -77.77734375 2.21484375 C-57.54197505 -16.87849356 -21.74556796 -16.68285258 0 0 Z M-50.8125 26.3125 C-54.90979815 31.62791382 -55.9313755 35.34652892 -55.95967102 41.93400574 C-55.96682632 43.07923706 -55.97398163 44.22446838 -55.98135376 45.40440369 C-55.98404266 46.65693436 -55.98673157 47.90946503 -55.98950195 49.19995117 C-55.99577025 50.53567683 -56.00241737 51.87140076 -56.00941467 53.2071228 C-56.03041627 57.58989253 -56.04081432 61.97266244 -56.05078125 66.35546875 C-56.05483045 67.86714508 -56.05894742 69.37882124 -56.06313133 70.89049721 C-56.08217549 77.99451682 -56.09640739 85.0985261 -56.1047433 92.20256633 C-56.11450915 100.38898169 -56.14081468 108.5751262 -56.18124419 116.76144618 C-56.21145841 123.09792306 -56.22621724 129.43432254 -56.22952431 135.77087003 C-56.23186901 139.55115213 -56.240753 143.33114462 -56.26598549 147.11134911 C-56.28936422 150.67127536 -56.29346064 154.23072334 -56.28322411 157.79070663 C-56.28249721 159.7081641 -56.30151987 161.6255978 -56.32128906 163.54295349 C-56.27972772 170.48198038 -55.74445137 176.41203809 -51.8125 182.3125 C-46.79834212 186.40569011 -42.5611194 187.68269556 -36.2265625 187.58984375 C-30.8509116 186.97225279 -27.0722819 184.67173837 -23.4375 180.75 C-19.4773534 172.37276681 -19.51993958 163.07018629 -19.55371094 153.96313477 C-19.5502063 152.78111481 -19.54670166 151.59909485 -19.54309082 150.3812561 C-19.53434674 146.50541163 -19.54009718 142.62975232 -19.546875 138.75390625 C-19.54642842 136.04068354 -19.54358629 133.32746403 -19.54107666 130.61424255 C-19.53745135 124.93966701 -19.54219771 119.26514375 -19.55175781 113.59057617 C-19.56263434 107.05981869 -19.55911683 100.52918619 -19.548105 93.99843174 C-19.5389847 88.36069098 -19.53777004 82.72298751 -19.54298234 77.08524173 C-19.54607681 73.73150787 -19.54577929 70.37787895 -19.53990936 67.02414131 C-19.53479351 63.27976326 -19.5426255 59.53562044 -19.55371094 55.79125977 C-19.54966248 54.70154373 -19.54561401 53.6118277 -19.54144287 52.48908997 C-19.57963933 37.3247296 -19.57963933 37.3247296 -27.05859375 24.73828125 C-33.32249389 19.64624662 -45.31050138 20.95157826 -50.8125 26.3125 Z " fill="#4B6978" transform="translate(1572.8125,401.6875)"/>
<path d="M0 0 C9.68117989 9.23349527 15.39414747 21.60962551 16.21631813 35.01473236 C16.29380752 38.6670352 16.3089975 42.31464606 16.30200195 45.96777344 C16.30635705 47.36671214 16.31154284 48.76564846 16.31748962 50.1645813 C16.33080789 53.94168745 16.33146614 57.7186931 16.32892632 61.49581814 C16.32785132 64.66136062 16.33275365 67.8268832 16.33753175 70.99242139 C16.34860301 78.46892127 16.34907834 85.9453709 16.34301758 93.421875 C16.33698481 101.10457927 16.3492765 108.78710007 16.37058765 116.46977305 C16.38827318 123.09177074 16.39419394 129.7137104 16.3909499 136.33573079 C16.38914731 140.27919716 16.3916695 144.22253275 16.40566444 148.16597748 C16.41835132 151.87942277 16.41619762 155.59258491 16.40325356 159.30602646 C16.39980586 161.29658515 16.41098632 163.28715294 16.42282104 165.27767944 C16.32966054 181.43463941 12.6624679 194.82928813 1.41015625 206.67578125 C-11.46612026 218.87658096 -26.58778675 220.34891882 -43.53515625 220.14453125 C-56.21112773 219.79386401 -68.3636665 215.5739953 -77.78515625 206.87109375 C-89.76871381 193.887094 -92.43718401 178.6215166 -92.37670898 161.47705078 C-92.38242878 160.08076436 -92.38939917 158.6844826 -92.39750671 157.28820801 C-92.41527671 153.53595537 -92.41430053 149.78393862 -92.40856433 146.03165674 C-92.40544858 142.88100541 -92.41159124 139.73039786 -92.41760308 136.5797528 C-92.4315939 129.13760329 -92.43013289 121.6955687 -92.41870117 114.25341797 C-92.40722769 106.616052 -92.42129501 98.97903752 -92.44809765 91.34171784 C-92.47036207 84.74677114 -92.47686793 78.15193391 -92.47102123 71.55695236 C-92.4676757 67.63468551 -92.46990431 63.71264376 -92.48727226 59.79040909 C-92.50291198 56.09816249 -92.49860103 52.4064304 -92.47996712 48.71420288 C-92.47461434 46.74076497 -92.48866498 44.76730298 -92.50366211 42.79391479 C-92.38333228 27.94596578 -88.77934439 13.68614343 -78.68359375 2.3671875 C-58.68744089 -16.89894708 -21.25677208 -17.87413928 0 0 Z M-50.97265625 25.93359375 C-55.03414395 31.51648564 -56.09218925 36.7441057 -56.11309814 43.52349854 C-56.11880829 44.63644791 -56.12451843 45.74939728 -56.13040161 46.89607239 C-56.13151947 48.10760483 -56.13263733 49.31913727 -56.13378906 50.56738281 C-56.13875397 51.8508812 -56.14371887 53.13437958 -56.14883423 54.45677185 C-56.16192005 57.97143029 -56.16839578 61.48606966 -56.17284489 65.00074863 C-56.17578196 67.19974839 -56.17988796 69.39874301 -56.18434906 71.59774017 C-56.19801431 78.48711727 -56.20768556 85.37648253 -56.21155095 92.26587224 C-56.21602861 100.20149823 -56.23356693 108.13695171 -56.26255155 116.07252526 C-56.28421353 122.21794236 -56.29425764 128.36331109 -56.29559207 134.50876594 C-56.29663693 138.17384215 -56.30247619 141.838756 -56.32041168 145.50379181 C-56.34005238 149.59670877 -56.33558547 153.68926756 -56.32910156 157.78222656 C-56.33831635 158.98566208 -56.34753113 160.1890976 -56.35702515 161.42900085 C-56.32049837 168.80255498 -55.9882299 176.07142053 -51.2890625 182.08984375 C-50.71027344 182.53328125 -50.13148438 182.97671875 -49.53515625 183.43359375 C-48.95894531 183.89765625 -48.38273438 184.36171875 -47.7890625 184.83984375 C-43.56993609 187.38039299 -38.78036084 187.41976612 -33.97265625 186.93359375 C-28.26723558 185.19295693 -25.30047037 182.87777473 -21.97265625 177.93359375 C-19.45538148 171.4145688 -19.68376507 164.99180258 -19.69799805 158.07275391 C-19.69288712 156.78896347 -19.68777618 155.50517303 -19.68251038 154.18247986 C-19.66917185 150.67617433 -19.66853599 147.16997693 -19.67107368 143.66365099 C-19.67214699 140.72896668 -19.66725077 137.79430393 -19.66246825 134.85962427 C-19.65139065 127.93179025 -19.65092567 121.00401046 -19.65698242 114.07617188 C-19.66301997 106.94669255 -19.65071286 99.81741068 -19.62941235 92.68796504 C-19.61175619 86.55099093 -19.60580135 80.41407944 -19.6090501 74.27708089 C-19.61085687 70.61875431 -19.60828776 66.96056858 -19.59433556 63.30226517 C-19.57934447 59.21912205 -19.5887623 55.13637691 -19.6003418 51.05322266 C-19.59269806 49.85292923 -19.58505432 48.6526358 -19.57717896 47.41596985 C-19.63230903 38.6026371 -20.46290447 30.44334553 -26.97265625 23.93359375 C-33.68681521 19.56553171 -45.42790686 20.2429299 -50.97265625 25.93359375 Z " fill="#4B6978" transform="translate(1030.97265625,402.06640625)"/>
<path d="M0 0 C12.21 0 24.42 0 37 0 C37.0093457 5.50171875 37.01869141 11.0034375 37.02832031 16.671875 C37.06206687 34.83672304 37.11740168 53.00145772 37.18390274 71.16621399 C37.22369936 82.18096153 37.25608872 93.19563756 37.27099609 104.21044922 C37.28400934 113.81180186 37.31096576 123.4129972 37.35461307 133.01426125 C37.37723511 138.09732247 37.39291023 143.18018963 37.39188385 148.26330566 C37.39113769 153.0502753 37.40907115 157.8368158 37.44116783 162.62367439 C37.44966811 164.37798162 37.45141588 166.13233697 37.44580269 167.88665581 C37.21767725 180.05769627 37.21767725 180.05769627 42 191 C46.17042333 195.0400976 51.02304337 195.35510009 56.6171875 195.28125 C60.59226257 194.81206081 63.77591186 193.34410173 67 191 C70.97011534 185.87727053 71.14938908 180.89682737 71.15821838 174.60955811 C71.16315636 173.86293388 71.16809434 173.11630965 71.17318195 172.34706044 C71.1885446 169.84433158 71.19691423 167.34162836 71.20532227 164.83886719 C71.21490176 163.04519424 71.22491188 161.25152355 71.23532104 159.45785522 C71.26236845 154.58636104 71.28337893 149.71485718 71.30332303 144.84332943 C71.32518357 139.75305858 71.35257193 134.66281757 71.37937927 129.5725708 C71.42930522 119.93249404 71.47424443 110.29240071 71.51740164 100.65229154 C71.56677483 89.67778086 71.62169266 78.70330013 71.67708123 67.72881842 C71.79089979 45.15257217 71.89700715 22.57629841 72 0 C83.55 0 95.1 0 107 0 C107.06786457 23.32314018 107.1230675 46.64619972 107.15543652 69.96941376 C107.17086916 80.80012053 107.19188939 91.63076135 107.22631836 102.46142578 C107.25633145 111.90749073 107.27560115 121.35350789 107.28226548 130.7996192 C107.28615766 135.79575872 107.29522875 140.79176157 107.31719017 145.78785706 C107.33774399 150.50249357 107.34379613 155.21693876 107.33932304 159.93161583 C107.34013988 161.65034212 107.3459919 163.36907566 107.35761642 165.08776283 C107.47355431 183.1336312 105.97113559 202.69061426 92.76953125 216.484375 C79.34186599 227.98533332 63.18888351 230.94026657 46.00390625 229.78125 C32.88654372 228.38492891 21.21386614 224.0369247 12.25390625 214.0546875 C3.45413223 202.86295496 -0.1795104 189.46063941 -0.12025452 175.33108521 C-0.12110894 174.57866857 -0.12196337 173.82625194 -0.12284368 173.05103481 C-0.12448515 170.54067183 -0.11899901 168.03037631 -0.11352539 165.52001953 C-0.11324321 163.7162018 -0.11340187 161.91238395 -0.1139679 160.10856628 C-0.11425465 155.21857159 -0.10837763 150.32860145 -0.10139394 145.43861246 C-0.09514008 140.32568391 -0.09455499 135.21275479 -0.09336853 130.099823 C-0.09026121 120.42083353 -0.08205589 110.74185536 -0.07201904 101.06287086 C-0.06083931 90.0423867 -0.05534276 79.021902 -0.05032361 68.00141358 C-0.03987279 45.33426801 -0.02153474 22.66713794 0 0 Z " fill="#4B6978" transform="translate(1177,393)"/>
<path d="M0 0 C11.88 0 23.76 0 36 0 C36.33 30.69 36.66 61.38 37 93 C46.23428329 73.95429071 55.40869838 54.94275268 64.27148438 35.73193359 C69.7910503 23.79524927 75.41299489 11.90502023 81 0 C93.21 0 105.42 0 118 0 C115.74984019 6.75047944 115.74984019 6.75047944 114.21923828 9.88037109 C113.87728424 10.58414886 113.5353302 11.28792664 113.18301392 12.01303101 C112.81582245 12.75896515 112.44863098 13.50489929 112.0703125 14.2734375 C111.68386566 15.06569733 111.29741882 15.85795715 110.89926147 16.67422485 C109.64491243 19.24299706 108.38508398 21.80903682 107.125 24.375 C106.25563939 26.15223616 105.38649993 27.92958051 104.51757812 29.70703125 C99.43268595 40.09733935 94.2957057 50.46000663 89.09423828 60.79248047 C84.30742237 70.32363078 79.67162455 79.93165661 75.1796875 89.60546875 C74 92 74 92 72.6953125 94.11328125 C70.42646856 97.79564226 70.42646856 97.79564226 70.3666687 101.98025513 C70.62578033 102.67529144 70.88489197 103.37032776 71.15185547 104.08642578 C71.44122986 104.87789001 71.73060425 105.66935425 72.02874756 106.48480225 C72.34926086 107.3148175 72.66977417 108.14483276 73 109 C73.30810608 109.81631897 73.61621216 110.63263794 73.93365479 111.47369385 C74.96143952 114.164191 76.01310382 116.84437032 77.0703125 119.5234375 C77.4640506 120.52653458 77.8577887 121.52963165 78.26345825 122.56312561 C79.54834181 125.83465856 80.83658882 129.10485488 82.125 132.375 C83.02196047 134.65627218 83.91876855 136.93760429 84.81542969 139.21899414 C87.53974394 146.14752526 90.26909532 153.07406426 93 160 C93.41511841 161.0529425 93.83023682 162.10588501 94.25793457 163.19073486 C96.91942098 169.94065884 99.58340338 176.68959323 102.25 183.4375 C102.58727112 184.29100037 102.92454224 185.14450073 103.27203369 186.02386475 C104.2484931 188.49400069 105.22576777 190.96381293 106.203125 193.43359375 C106.51099945 194.21307373 106.8188739 194.99255371 107.13607788 195.7956543 C108.82248516 200.05779489 110.52972483 204.31054295 112.25976562 208.55517578 C112.63139832 209.47114029 113.00303101 210.3871048 113.38592529 211.33082581 C114.1029358 213.09607125 114.82414438 214.85961898 115.55010986 216.62120056 C115.87098572 217.41273026 116.19186157 218.20425995 116.52246094 219.01977539 C116.80829041 219.71744522 117.09411987 220.41511505 117.38861084 221.13392639 C118 223 118 223 118 226 C105.79 226 93.58 226 81 226 C76.50030755 217.00061509 76.50030755 217.00061509 74.86865234 212.63916016 C74.50081635 211.66258453 74.13298035 210.68600891 73.7539978 209.67984009 C73.3685379 208.64338348 72.983078 207.60692688 72.5859375 206.5390625 C71.96412094 204.88395157 71.96412094 204.88395157 71.32974243 203.19540405 C70.00740383 199.67345402 68.69094235 196.14934431 67.375 192.625 C65.65534921 188.03321478 63.93331827 183.44232429 62.2109375 178.8515625 C61.78713806 177.72075256 61.36333862 176.58994263 60.92669678 175.42486572 C56.35881984 163.25458681 51.68795054 151.12448151 47 139 C46.04161005 140.66945346 45.0832318 142.33891364 44.12493896 144.00842285 C43.38867932 145.2907541 42.65179046 146.57272413 41.91455078 147.85449219 C40.93491187 149.56503549 39.96751228 151.28256856 39 153 C38.63645416 153.59121643 38.27290833 154.18243286 37.89834595 154.79156494 C36.65612203 157.84536716 36.71720991 160.49482857 36.68115234 163.78808594 C36.66608391 164.79845665 36.66608391 164.79845665 36.65071106 165.82923889 C36.61990979 168.0476092 36.60285279 170.265859 36.5859375 172.484375 C36.56722335 174.02566564 36.54764975 175.56694606 36.5272522 177.10821533 C36.47595089 181.15889458 36.43631456 185.20960704 36.39910889 189.26043701 C36.35201095 194.12392479 36.29042171 198.98724805 36.23126221 203.8506012 C36.14307428 211.23366765 36.07329292 218.61670296 36 226 C24.12 226 12.24 226 0 226 C0 151.42 0 76.84 0 0 Z " fill="#4B6978" transform="translate(821,111)"/>
<path d="M0 0 C11.88697656 9.79392089 16.36027253 23.23463009 18.3046875 38.0859375 C18.71161705 43.79365986 18.6015625 49.52779009 18.6015625 55.25 C7.0515625 55.25 -4.4984375 55.25 -16.3984375 55.25 C-16.7284375 49.64 -17.0584375 44.03 -17.3984375 38.25 C-18.80400672 33.09624619 -20.14569616 29.57245417 -24.3984375 26.25 C-27.70178816 25.14888311 -30.29675887 25.04773472 -33.7734375 25 C-34.89492187 24.97421875 -36.01640625 24.9484375 -37.171875 24.921875 C-40.73981821 25.28471668 -42.54492488 26.12255909 -45.3984375 28.25 C-50.79558101 35.76744989 -50.27310879 45.36718265 -49.3984375 54.25 C-45.57993731 71.34943013 -31.439549 84.6223865 -18.5234375 95.625 C0.21520571 111.7434092 15.38076692 129.90808129 18.6015625 155.25 C19.93872444 173.75709648 17.9006826 191.6453333 6.6015625 206.9609375 C-1.52202509 216.25863736 -13.89072103 221.52522365 -26.08227539 222.45458984 C-28.96193695 222.55336121 -31.82965144 222.57917962 -34.7109375 222.5625 C-35.72768555 222.55686035 -36.74443359 222.5512207 -37.79199219 222.54541016 C-51.86140216 222.3177571 -63.68075768 218.84516599 -74.2109375 209.125 C-86.24541589 196.293964 -88.59594471 179.17406453 -88.4609375 162.3125 C-88.4403125 158.661875 -88.4196875 155.01125 -88.3984375 151.25 C-76.8484375 151.25 -65.2984375 151.25 -53.3984375 151.25 C-53.1484375 162.6875 -53.1484375 162.6875 -53.10058594 166.23608398 C-52.88698873 172.87839499 -52.06008618 178.5736802 -48.3984375 184.25 C-43.9801957 187.53799389 -38.83478212 188.38412034 -33.3984375 188.25 C-28.30882604 187.40988785 -25.24120315 186.26131878 -21.8984375 182.25 C-17.87153026 174.19618552 -18.08584467 163.37590131 -20.3046875 154.7109375 C-21.49712286 151.75278054 -22.82566662 149.02326355 -24.3984375 146.25 C-24.82125 145.48816406 -25.2440625 144.72632813 -25.6796875 143.94140625 C-31.18844697 134.95764444 -39.04854047 127.04801329 -47.05078125 120.26171875 C-67.4182285 102.80874814 -84.06776368 83.85114916 -87.3984375 56.25 C-88.50673967 38.7200337 -86.84989471 20.24984681 -75.2421875 6.28125 C-57.04517602 -13.76630502 -21.64000678 -15.7894512 0 0 Z " fill="#4B6978" transform="translate(1831.3984375,399.75)"/>
<path d="M0 0 C12.52158989 9.85201235 16.81754724 23.72283066 19 39 C19 44.61 19 50.22 19 56 C7.45 56 -4.1 56 -16 56 C-16.3125 47.4375 -16.3125 47.4375 -16.38793945 44.78295898 C-16.68092599 38.4705605 -17.80595524 33.52647578 -22.0625 28.625 C-25.49113199 25.74937317 -27.88909707 25.8101142 -32.3125 25.75 C-33.44300781 25.72421875 -34.57351563 25.6984375 -35.73828125 25.671875 C-39.34220477 26.03442539 -41.12467472 26.84224272 -44 29 C-49.81984545 36.59813156 -49.55629765 43.66431401 -49 53 C-45.91405652 70.56800896 -32.18238751 83.84484014 -19.23828125 95.0546875 C-1.29055404 110.65323575 16.05608433 129.28084032 19 154 C20.29642251 173.11257027 19.31865302 192.59581066 6.875 208.1875 C-2.60728897 218.2598885 -14.8246735 222.67985946 -28.4296875 223.34375 C-44.6570255 223.77417236 -60.56621541 221.8471766 -73.25 210.625 C-80.33697367 202.93014783 -85.81985835 191.40124847 -87 181 C-87.10699219 180.3090625 -87.21398437 179.618125 -87.32421875 178.90625 C-88.49563737 170.02172434 -88.06290829 160.93297678 -88 152 C-76.45 152 -64.9 152 -53 152 C-52.6875 163 -52.6875 163 -52.61206055 166.41796875 C-52.35478921 173.51890816 -51.57917998 179.49968431 -47.25 185.375 C-41.977255 189.18309361 -36.59416086 189.35847947 -30.3671875 188.53515625 C-26.84952912 187.73991005 -24.66696581 186.40677403 -22 184 C-17.00923907 176.0836206 -17.17258624 167.13143522 -19.0625 158.25 C-23.92892744 140.45851985 -38.1488377 128.59425152 -51.19140625 116.53125 C-71.4961888 97.72610511 -85.33969419 79.77083368 -87.1796875 51.2109375 C-87.61601618 34.77589071 -84.36896285 17.2501129 -72.96484375 4.7734375 C-54.04083101 -13.04917767 -21.47225421 -13.94589707 0 0 Z " fill="#4B6978" transform="translate(903,399)"/>
<path d="M0 0 C32.01 0 64.02 0 97 0 C97 10.89 97 21.78 97 33 C76.87 33 56.74 33 36 33 C36 53.46 36 73.92 36 95 C52.17 95 68.34 95 85 95 C85 105.89 85 116.78 85 128 C68.83 128 52.66 128 36 128 C36 149.45 36 170.9 36 193 C56.13 193 76.26 193 97 193 C97 203.89 97 214.78 97 226 C64.99 226 32.98 226 0 226 C0 151.42 0 76.84 0 0 Z " fill="#4B6978" transform="translate(1202,111)"/>
<path d="M0 0 C33.66 0 67.32 0 102 0 C102 36.69128874 102 36.69128874 93.75 54 C92.87978571 55.94401357 92.01594759 57.8908918 91.15795898 59.84033203 C89.3715915 63.8848192 87.55840196 67.91550593 85.72412109 71.93847656 C81.69519985 80.83009855 78.00840014 89.86308056 74.29394531 98.88931274 C72.23901818 103.87156383 70.15949549 108.84352084 68.08203125 113.81640625 C67.24416892 115.82432541 66.40644201 117.83230108 65.56884766 119.84033203 C65.14879456 120.84735168 64.72874146 121.85437134 64.29595947 122.89190674 C62.05363614 128.26965982 59.81394678 133.64850938 57.57421875 139.02734375 C56.67375053 141.18961746 55.77327857 143.35188961 54.87280273 145.51416016 C53.58375147 148.60953153 52.2947782 151.7049352 51.00613403 154.80047607 C49.82214639 157.64447315 48.63767954 160.48827025 47.453125 163.33203125 C47.12048141 164.1314061 46.78783783 164.93078094 46.44511414 165.75437927 C42.65640383 174.84747703 38.82277825 183.92090166 35 193 C57.11 193 79.22 193 102 193 C102 203.89 102 214.78 102 226 C67.35 226 32.7 226 -3 226 C-3 187.04589915 -3 187.04589915 4.25 172.375 C5.02599633 170.67768556 5.79487965 168.97710479 6.55737305 167.27368164 C8.1704093 163.68307522 9.81130097 160.10728915 11.47216797 156.53857422 C15.43221326 147.95367801 18.97665272 139.19291022 22.5710144 130.45043945 C24.64819387 125.40936932 26.75100728 120.37901968 28.8515625 115.34765625 C29.70223532 113.30749065 30.5528207 111.26728859 31.40332031 109.22705078 C33.61661059 103.91902972 35.83063896 98.61131676 38.04481506 93.30366516 C39.8306821 89.02236344 41.61598502 84.7408266 43.4012146 80.45925903 C44.98295683 76.66655272 46.56587201 72.87433638 48.14912415 69.08226013 C53.15069266 57.0742809 58.07433511 45.04051417 63 33 C42.21 33 21.42 33 0 33 C0 22.11 0 11.22 0 0 Z " fill="#4B6978" transform="translate(1080,111)"/>
<path d="M0 0 C12.54 0 25.08 0 38 0 C43.59287524 19.1291198 48.63375705 38.39487428 53.68322754 57.67266846 C54.84834567 62.11880612 56.01609389 66.5642529 57.18359375 71.00976562 C59.4582438 79.67251856 61.73006707 88.33600992 64 97 C65.38062705 94.39046493 66.39852854 91.9319411 67.14491272 89.07772827 C67.34815659 88.30943192 67.55140045 87.54113556 67.76080322 86.7495575 C67.97645935 85.91616348 68.19211548 85.08276947 68.41430664 84.22412109 C68.64707809 83.33917465 68.87984955 82.45422821 69.11967468 81.54246521 C69.88723682 78.62050612 70.64862564 75.69697375 71.41015625 72.7734375 C71.94253893 70.74358535 72.47537698 68.71385259 73.00865173 66.68423462 C74.41102817 61.34305899 75.80847943 56.0006083 77.20452881 50.65777588 C79.44165063 42.09808341 81.68472269 33.53995361 83.93063164 24.98256302 C84.71546273 21.98838125 85.49728648 18.9934255 86.27882385 15.99838257 C86.75747751 14.17125853 87.23622693 12.34415957 87.71508789 10.51708984 C87.93276825 9.67964737 88.15044861 8.8422049 88.37472534 7.97938538 C89.88636524 2.22726952 89.88636524 2.22726952 91 0 C102.55 0 114.1 0 126 0 C123.42135677 10.31457291 120.76958001 20.47087131 117.68359375 30.625 C117.26974864 31.99442749 116.85620922 33.3639474 116.44294739 34.73355103 C115.78911865 36.89994054 115.13489295 39.06620423 114.47911358 41.23200417 C112.84893745 46.61928912 111.24533368 52.01410241 109.64941406 57.41162109 C105.39064478 71.77740297 101.06072296 86.0772198 96.10404205 100.21942902 C94.08797651 105.99966656 92.14503164 111.80403158 90.25 117.625 C89.94124813 118.57294434 89.94124813 118.57294434 89.62625885 119.54003906 C78.4337957 154.26892902 79.87208348 189.90667123 81 226 C69.12 226 57.24 226 45 226 C45.18304687 221.44445312 45.36609375 216.88890625 45.5546875 212.1953125 C46.51097807 178.01922343 44.82986996 146.63720092 34.3125 113.9375 C34.07235672 113.1906255 33.83221344 112.44375099 33.58479309 111.67424393 C31.36946793 104.81977202 29.09494751 97.98574528 26.76333618 91.16996765 C21.04881242 74.4473891 16.07090491 57.51803288 11.09701538 40.56326294 C9.65105046 35.64049325 8.1816816 30.72490913 6.70825195 25.81030273 C6.03230374 23.54942865 5.35682414 21.28841528 4.68160057 19.02732468 C4.25708011 17.60787949 3.8314127 16.18877676 3.40453529 14.7700386 C2.82265561 12.83425142 2.24637782 10.89678296 1.67041016 8.95922852 C1.34593903 7.87448746 1.0214679 6.7897464 0.68716431 5.6721344 C0 3 0 3 0 0 Z " fill="#4B6978" transform="translate(943,111)"/>
<path d="M0 0 C36.3 0 72.6 0 110 0 C110 10.89 110 21.78 110 33 C97.79 33 85.58 33 73 33 C73 97.02 73 161.04 73 227 C61.12 227 49.24 227 37 227 C37 162.98 37 98.96 37 33 C24.79 33 12.58 33 0 33 C0 22.11 0 11.22 0 0 Z " fill="#4B6978" transform="translate(1297,393)"/>
<path d="M0 0 C12.21 0 24.42 0 37 0 C37 63.69 37 127.38 37 193 C56.14 193 75.28 193 95 193 C95 204.22 95 215.44 95 227 C63.65 227 32.3 227 0 227 C0 152.09 0 77.18 0 0 Z " fill="#4B6978" transform="translate(1069,393)"/>
<path d="M0 0 C11.88 0 23.76 0 36 0 C36 74.91 36 149.82 36 227 C24.12 227 12.24 227 0 227 C0 152.09 0 77.18 0 0 Z " fill="#4B6978" transform="translate(1422,393)"/>
</svg>
